<svg xmlns="http://www.w3.org/2000/svg" viewBox="0 0 6.47 1902.46"><defs><style>.cls-1{fill:none;}.cls-2{fill:#202020;}</style></defs><g id="레이어_2" data-name="레이어 2"><g id="레이어_1-2" data-name="레이어 1"><path class="cls-1" d="M3.24,1902.2V.46"/><path class="cls-2" d="M4.57.46C4.39-.54,4,0,4.08,2.78l.66,2Z"/><path class="cls-2" d="M3.34,19c.32,3.24.89,7,1.49,4.88-.63-3.21-.37-4-1.12-7.45-.08-2.76.21-4.81.45-4.35-.17-1,.15-4.29-.27-5.77a58.84,58.84,0,0,0-.11,12.89C3.64,20.24,3.46,19.25,3.34,19Z"/><path class="cls-2" d="M2.31,288.71,2.39,287C2.34,287.45,2.32,288,2.31,288.71Z"/><path class="cls-2" d="M1.94,455.81a6.47,6.47,0,0,0-.14-1.87A7.15,7.15,0,0,0,1.94,455.81Z"/><path class="cls-2" d="M1.22,484.34c0-.61,0-1.13,0-1.68A8.94,8.94,0,0,0,1.22,484.34Z"/><path class="cls-2" d="M2.31,288.71l-.21,4.46C2.32,293.49,2.26,290.89,2.31,288.71Z"/><path class="cls-2" d="M4.94,56.21c0-.94-.1-1.71-.18-2.43,0,.77.06,1.51.07,2.28A.65.65,0,0,1,4.94,56.21Z"/><path class="cls-2" d="M1.77,215.05v-1.36c-.07-.4-.17-.77-.27-1.13Z"/><path class="cls-2" d="M1.67,158.52a3.55,3.55,0,0,0,.78,2.21,10.85,10.85,0,0,1-.38-2.79C2,157.92,1.83,158.09,1.67,158.52Z"/><path class="cls-2" d="M2.66,68.88l-.08-1.59C2.61,67.7,2.63,68.4,2.66,68.88Z"/><path class="cls-2" d="M1.65,255.51a1.28,1.28,0,0,0-.2.52C1.52,256,1.59,255.82,1.65,255.51Z"/><path class="cls-2" d="M5.87,1836.67c0-.05-.06,0-.1,0C5.83,1837,5.87,1837.1,5.87,1836.67Z"/><path class="cls-2" d="M3.09,1902.2l0-.91c-.11-.1-.21-.2-.31-.2Z"/><path class="cls-2" d="M.5,536.55a1.69,1.69,0,0,1,0-.23C.44,534.94.45,535.72.5,536.55Z"/><path class="cls-2" d="M.91,1015.87c.5-5.43.65,8.83,1.2.66C1.89,1017.29,1.24,1009.1.91,1015.87Z"/><path class="cls-2" d="M4.86,57.67c0,.77,0,1.54,0,2.32C4.89,58.94,4.89,58.22,4.86,57.67Z"/><path class="cls-2" d="M2.11,1016.53h0l0-.85C2.15,1016,2.13,1016.23,2.11,1016.53Z"/><path class="cls-2" d="M.83,656.85a6.21,6.21,0,0,0,.25-1.22C1,655.67,1,655.94.83,656.85Z"/><path class="cls-2" d="M1.63,567.23l-.07,2.22C1.61,568.57,1.63,567.85,1.63,567.23Z"/><path class="cls-2" d="M1.63,703.39a27.65,27.65,0,0,0,0,3.26c0-.16,0-.31.07-.5A13.87,13.87,0,0,1,1.63,703.39Z"/><path class="cls-2" d="M1.63,751.82c0-.26.08-.6.11-.89,0-.48,0-1,0-1.54Z"/><path class="cls-2" d="M5.6,1689.47a12,12,0,0,1-.5,2.24C5.5,1691,5.64,1698.08,5.6,1689.47Z"/><path class="cls-2" d="M4.62,56.23a3.74,3.74,0,0,1,.24,1.44c0-.55,0-1.09,0-1.61C4.75,55.92,4.67,55.89,4.62,56.23Z"/><path class="cls-2" d="M6.06,705.36,6,713.05C6,710.9,6.06,708.1,6.06,705.36Z"/><path class="cls-2" d="M5.52,1342l.07,1.77A11.72,11.72,0,0,0,5.52,1342Z"/><path class="cls-2" d="M6.06,735.89c-.2,1.37-.31,2.83-.39,4.33a7.1,7.1,0,0,0,.15.89Z"/><path class="cls-2" d="M5.09,1691.73v0Z"/><path class="cls-2" d="M6.43,1742.41c0-7.33-.72-3.44-1.15-5-.21-8.75.55-4.05.92-7-.19-5.47-.87-9.66-.84-13.74.12-.3.16-1.09.32-.16-.59-5.78,0-17.15-.77-23.88a4.3,4.3,0,0,1,.18-.88c-.37,1.09-.74,1.25-1,1,0-3.29-.47-6.1,0-7.34a11,11,0,0,0,.33,3.13l-.21-3.44c.69-3.11.24,4.7.75,4.7-.22-6.72-.8-14.55-.6-19.69.68-1.08.23,12,.83,5.16l-.26,8c1.07-6.09-.07,4.84,1.07-.76.2-10.47-.34-11.72-.15-22.17-.37-2.35-.56.78-.93-1.58-.68-14.85,1.71-11.69.8-22.62-.45-2.82-1.31-3.92-.86-11.7l.77,2.66c.08-10.15-1.1-5.8-.59-16.42.31,1.89.26,8,.35,6.44.61-6.89-.44-4.87-.44-10.16l.68-1.1c-.1-10.8-.59-22.7-.72-34.66.2.66.42,2.71.62-.09-.33-15.09.09-32.21.49-46.76l-.59-5.56c0-1.3.27-2.4.38-1,.23-5.68-.37-.3-.6-3,0-3.23.34-4.27.51-2.22-.49-10-1.07-28.51-.44-39.06l.17,2.06c.24-8.22-1.2-9.27-.65-16.89l.1,1.46c.26-17.82-.28-37.52.61-51.11-.85-2.59.37-17.64-.81-18.79.59-10.18.8-7.26,1.19-21.6.06-3.82-.73-5.7-.86-10.43l.62-.12L5,1351.63l.74-3.42-.16-4.44c0,1.77-.28,3.76-.45,3.49-.28-6.94.43-16.9.74-17.08l-.52-16.4c.25.36.33,3.11.49,5.28-.63-8.75.65-1.59.07-9.61-.14,1.07-.36-.58-.49-.76.38-4,.38-13.11.22-19.85l.43,1.3c.11-12.17-.21-25.65-.2-39.31-.2,4.9-.93,3.77-1-.23l.65-1.6c-.41-2.59-.25,4.18-.74-1.13.07-5.1.74-3.43,1-.5l-.22-6.2c.19-.36.29,1.09.54,1.47-.4-2.54.65-10.7,0-14.38l.2-.35c0-13.65-.22-19.84-.26-31-.56-.21-.43-4.56-.89-7.88.18-8.17.62-17.24.58-27.08-.28-6.92-.48-2-.81-5.14.51-.5.46-10.34.83-5.24-.09-11.82-.1-15.09-.52-30-.21,1.63-.3,3.45-.48,2.5-.08-2.71.22-6.17.46-5.78l.06.72c-.77-16.78,1.49-38.72.42-52.08l.06.75-.56-13.85c.09-6.38.38,3.82.7-.9C5,1038,5.92,1029.32,5.36,1017c1.51-9.53-.11-33.8.85-46.66l-.35.74c-.35-3.32.2-4,.28-6.47-.27.35-.32,3.61-.51,1.54-.43-28.15.52-58.1.84-87,.1-10.56-1.84-6-1-19.3l.66,3.78c-.79-21.3,0-43.56-.64-64.41a15,15,0,0,1,.34,3.31c.48-4.4,0-16.28-.36-16.36,0-3.25.35-.75.55-2.75.28-4.42-.61-11.09-.14-13.44.08-.4.16,1.24.2,2.05-.24-2.88.06-13.41-.5-10.66.27-7.82-.24-15,.08-21.21-.62-4.07.3-13.4-.57-14.69.9.56.73-13.72.3-18.67.27,1.66.28-4.3.66-2.36,0-5.65-.18-10.83-.64-9.84,1.08-10.41-.88-20.91.51-26.77-.48-16.78-.81-32.3-1-47.39.9.54.09,16.68,1,16C5.57,622.21,4.8,614,5,599.76c.13-3.67.4,2.09.55,3.33-.37-14.3.08-27.65-.41-40.38a16.46,16.46,0,0,1,.24,2.71c0-2.51.14-5.84-.27-5.55l.11,2.44c-.6,4-1.25-10-1.56-10.41,1.18,4.26.3-12.57,1.78-5.81-.08-1.65-.27-3.72-.54-3.34.07-2.45.24-3.23.55-.74-.23-9-.66-5.79-.65-13.93.2,0,.27,1.67.51,2.51a112.15,112.15,0,0,1-.61-15.14c.12.41.27-.38.27,1.67C4.92,505.3,4,497,4.33,484c.86,3.83.28-4.4,1-5.09l-.23-7-.36,2.8c0-6.11-.53-11.5-.29-16.75l.31,4.54-.14-11.44-.28,6.47c-.39-6.18-1,.66-.74-7.46.08,1.65,0-6.11.45-9.29v0a79.27,79.27,0,0,1-.3-10.64c.24-1.17.82.94,1,.18-.62-3-.17-14.3-.84-18.07.16,1.26.55,1.33.63.91l-.5-2.5c.16-2.83.24-3.24.55-2.78.09-8.51-.95,2.7-.54-7.39,0,.79.12.41.19,2.06.22-10.14-.32-19.59-.07-28.91.75-2.74.19,8.14.82,5-.14-13.43-.9-27.82-.72-40.82l-.09,2.43c-1.06-1.81.53-9.68,0-16.26.08,1.61.59,2.11.47,1.68.17-8.91-.26-18.2-.6-31.69l.28,1.67c.24-5.25.14-13.82.26-19.48-.27-1.69-.23-4.93-.62-3,1.55-17.47-.84-33.33.46-48.83,0,1.85.24,4.42.24,2.94l-.25-13.2c-.47,1-.28,1.73-.64,4.5A66.77,66.77,0,0,1,3.33,210c.31,5.94.74-.05,1-2.62-.14.43-.3-.45-.44-.23.82-6.9-.93-1.15-.38-10.57l.24.5c-.12-3.53-.44-6.78-.37-10.58.53-1.57.25,3.75.69,4,0-5.34-1-10.54-.48-15.37.15,2.27.15,5.53.3,7.8a70.51,70.51,0,0,0,.57-9.79l0,.39.29-9-.17,2.3c-1.4-6.68-.26-13.6-1.17-22.6.86,8.74.5,1.44,1.1,2.11.17-2.3.36-5.79.53-4.79-.49-4.26.39-7.11-.33-13.11.2-.27,0-4.55.51-3.59-.15-5.53-.34,1.31-.58.84-.67-8.52.8-20-.11-32.3C4.13,82.8,3.48,80.84,3.15,71c.31-3.31.71,2.71.71,2.71a135.65,135.65,0,0,0,0-14.4c.17,1,.31,0,.53-1.56-.05-4-.71-2.7-.42-8a27.76,27.76,0,0,1,.78,4C4.58,49,4.22,44.32,4,39.39c.34-1.31.52,3,.74,4.71C4.63,38.56,4.47,29.75,3.94,28l-.2,3.55c0-2,.47-1,.56.45.43,4.75-.18,6.85-.38,7.12L3.8,35.65c-1.15,3.61.18,14.1.11,21.16l-.83-2.94.69,7.25c-.21,1.54-.68,2.59-.8-.9-.41,5.07.29,4.49-.17,8.84-.07.48-.11.26-.14-.18l.25,5c-.18-1-.59.82-.47-2.22-.48,8.89.62,14.33,0,17.67l-.05-.74C2.66,100.87,3,89.73,3.71,99L2.2,105.2l.61,1.21c0,1.27-.06,3.79-.31,3.32.42,4.74.27-.8.66,1.94-.55,6.12.26,16.88-.71,18.26.46,2.2.36-5.85.68.68-1,1.87.18,7.56-.3,13.15-.54-1.72-.25-7-.74-1.42.92,3.37-.2,10.89,0,15.6.72.22.3,10.26.54,18.17-.24-.5-.4,14.9-.66,22.26l-.12-.22c.73,1.43.59,9,.75,14.55-.44-.22-.62-1.21-.81-4.21v5.2a39.07,39.07,0,0,1,.44,6.22l-.54-1.31c0,6.92.64,13.94.27,22.84.52.5,1.43-7.08,1.77,2.33-.27.35-.75.7-.86-1.76a36.87,36.87,0,0,1,.11,4.5l-.46-3.76c-.21,4.05.38,2.12.34,5.36-.39-.06-.28,2.4-.59,1.94,0-.83.16-2.83,0-4.07a80.45,80.45,0,0,1-.6,9.53c.22-.32.53,0,.58,2.68,0,6.92-.47,2.37-.67,6.4.27,1.68,0,6.09.58,6.21A10,10,0,0,1,1.7,274c.26,3.58.07,16.72.7,12.69l0-.92c0,.17,0,.38,0,.59v0c.58,11.73-.34,24.38-.08,36h-.2c.22,6.95.13,15.47.56,20.43,0,2.06-.36,4.85-.6,4a124.19,124.19,0,0,1,0,13.58c-.34-5.34-.3,1.84-.25-5.47-.17,6.9-.48,8.47.06,15.88-.51-2.53-.64,5.2-.49,8.48l.36-4.84c.07,3.69,0,6.92,0,10.2l-.67-1.78c-.81,14.13,1.38,25.49,0,36.24.47,3.74.33-7.67.88-4.33C2,421.22,1,428,1,430c-.37,8.9,1,8.31.72,17.62.24-1.19.87-2.31,1.09,4.65-.08,6.5-1,8-1.18,3.89,0-1.56.05-2.32.13-2.25-.08-2.1-.18-4.86-.44-2.28l.24.84c-.25,3.23-.22,12.18-.61,10.07.23,4.92.39,2.11.51-1.53-.34,8.34,0,13-.24,21.62.13-1.37.41-2.63.41-1.27-.3,12.6.45,5.55.55,14.08-.36,4.85-.86-1.74-.56,6.86-.24,5.24-.63,1.11-.82-1,.46,7.83-.3,14.63-.39,19.1l-.19-4.13c.12,2.47.11,4.49.11,6.54l.48-2.35c-.09,2.42-.09,4.47-.29,4.42.31,2.5.79-1.9,1.22,3.05-.24,3.22.26,9.82-.37,10.94.21-10.15-.64,1.12-.74-7.47q.12,2.47,0,6.1c-.07.37-.13-.34-.16-1-.57,9.71.71,4.46.69,14.53-.35-1.28-.67,2.33-.59,4,0-4,.59-1.94.86,1.79-.28,6.45.21,7,.17,10.39l.13-3.86c.36,1.31.31,4.54.42,9-.27.39-.19-4.08-.31-2.48.63,5-.64,11.29-.22,18.26-.24,3.22-.67.31-.83,3.14.46,7.81-.49,8.46-.11,16.66.48-2.36.36-2.77.82,3L1.2,597.49l.69,8.66c0-4.07-.3-8.59-.22-11,.39,4.13.27,3.7.67,1.75-.72,5.57.42,11-.07,17.49l-1.18-.2c-.52,9.68.61,17.2.31,29.77l.21-4c.47,1.69.06,7.76.25,11.83-.39-.38-.53,2.17-.78,3.91.29-.22,0,9.2.76,10.34l-.52,5.61c-.21,10.15,1.13,11.58,1,21.34-.43-2.94-.71,1.5-1-5,0,3.26-.08,6.19.19,6.24-.24,1.9.53,9,.16,12a21,21,0,0,1,.55,5.48c-.08.4-.19,0-.19,0,.19,0,.26,5.73.7,2.53-1.23,10,.09,28.05-1,36.79C1.88,758,2,766.6,2,773.06c-.12-.42-.2,0-.15-1.25-.37,8.91,1.13,5.48.72,15.61C2,792.6,2.25,782,2,785.27c-1.3,1.4.18,12.22-.58,19l-.08-1.65c-.44,5.21.5,12.72.4,21.23,0,0-.11-.41-.19,0,.66,5.82.88,16.85,1.06,25-.5-2.55-.27-3.72-.78-2.17.07,3.67.83-1.07,1,6.26-.28,2.38-.52,7.67-1.07,8.37l0-6.92c-.71,3.54,0,9-.1,12.59l-.31-.46c.1,10.59.89,10.74.83,22.13l.24-1.18c.77,6.22-.44,5.22.14,11.43l-.79,1.87c.19,4.11.76,14.39.91,21.75-.59-4.17-.89-12.79-1.23-18.12,0,4.07.05,13.83.44,16a47.38,47.38,0,0,1-.14-5.32,164.93,164.93,0,0,1,.91,19.67c-1.53-1.44-.39,21.14-1.58,27,.57,14.35-.24,28.47-.15,45.18,1.19-5.93,0,4.88,1.26,3.86a49.69,49.69,0,0,1,0,5.72l-.73,11.8c-.36,2.8-.27-3.7-.55-3.35-.09,8.53-.51,3.58-.84,9.22.44-1.15.63,3,.46,7.83l.56-6.85c.65,11.92-1,10.3-.38,22.31l-.38-3.8c.22,6.16,0,22.73,1,28.77-.14,1.09-.47,2.53-.56-.18-.15,14.72,1,32.78.44,44.22l-.3-1.11c.09,2.74.56,4.78.26,8.22-.12-.18-.3-1.11-.32.16a108.68,108.68,0,0,1,.35,10.94l-.33-3.11c-.39,14.37.82,22.05,1,34.09-.88,0-1.17,11.27-1.31,16.91l-.12-.19c-.11,16.72.73,28.41,1.07,43.9-.95,9.61-.4,32.57-.93,48,.16-2.36.68.38.77,3.13-.18,3.63.61,10-.19,9.45v-1.29c-.79,2.73-.58,10.18-.6,16l1.05,1c-1.53,15.22.57,39.88-.81,48.19.27,3.67.26,8.22.53,11.86l-.57-.2c-.14,10.18-.21,15.26-.08,27.84l-.4-2.57c0,7.1,1.63,9,1.66,15.51l-.84,2c0,12.37-.73,24.9,0,37.14-.12-.21-.36-.57-.4-2.57,0,5.82-.57,22.53.59,20.42-.76.14-.07,12.77.26,19.46l-.56-1a90.46,90.46,0,0,1,1.11,13.71c-.08,1.86-.45,1.63-.31-.85-.29,6.22.53,4.85.23,12.4L1.63,1511a44.08,44.08,0,0,0,.56,9.42c.22,4-.14,12.15-.65,13.09a31.64,31.64,0,0,1,.58,8.14c-.19.51-.31-.86-.37-1.55-.38,10.7.65,15.92.1,23.28a2.26,2.26,0,0,0-.33,1.24c0-8.5,0-15.35.08-14.71-.51,0-.6,6.87-1.31,1.4.39,5.52,1.23,15,1,21.64a6.06,6.06,0,0,1-.18.89l-.06-.7a41.28,41.28,0,0,0,.09,4.24c-.09,2.13-.15,3.49-.16,5.54-.42.79-.23,7.88-.25,11.3.56-.28.47,4.21.94,0,0,.55-.07-.64-.09-2.92,0-.52,0-1.12-.06-1.46,0,.07,0,.15.05.23,0-2.25,0-5.18,0-8.51a45.44,45.44,0,0,1,.21,9.32c.37,1.76.74,3.69.91,4.78-.78,4.69-1.21,13.73-1.69,15,.32,10.46.21,24.64,1.26,31.22a13,13,0,0,1-.46,4.53c-.11-1.72-.09-3.76-.25-4.69.27,5.94.11,17.62.85,19-.34,7.5-.68-4.21-.56,6.09l-.23-1.39c-1.18,20.26,1.89,32.93.37,55.39a13.93,13.93,0,0,1,.26-2.65c-.67,25.6.63,52.76-.43,78-.21,7.18.26,8,.62,12.34l-.61,1.56.7,7.49C3,1828.22,1,1836,2,1849.45l.41-1.74c-.08,4.83.24,15.31-.23,14.5a10.16,10.16,0,0,1,.21,3.47l-.32.15.55,11.87c-.23,9.2-1.26-1.44-1.32,12,.12,5,.92,14.22,1.13,12.34,0-2,.2-5.14.52-5.29l.16,4.56c.93.83,1.88,4.34,2.54-6.87L5,1886.61l.45-2.51,0,6.57a35.93,35.93,0,0,0-.21-8.74,11.86,11.86,0,0,0,.49-3.27L4.91,1871c.36-.93.72,3.43.92-1.71-.41-3.59-.82,3.44-1.09-2.5.42-3.74.77-2.65.41-7,.24-.62.39.31.5,2-.29-3.9-.13-10.33-.62-12.34.52-3.9-.14-13.18.74-12.8a104.06,104.06,0,0,1-.72-10.45c1,6.54.06-13.42,1.19-11.69-1-4.85-.42-17.51-1-26.09a10.39,10.39,0,0,1,.18,2.18c.08-4.84.37-6.24.55-9.34-.79-.63-1-8.15-1.45-12.21.76-5.92.92,3.6,1.65,1.74-.64.3-.64-10.29-1.17-8.28.47-4.53.23-3.9.88-6.23-1-.8-.17-4.22-.77-8,.48-6.55.92-1.68.62-8.88C6.08,1736,6.43,1742.41,6.43,1742.41Zm-1.7-171.26h0c0,1.48,0,2.74,0,3.54C4.77,1574,4.76,1572.93,4.73,1571.15Zm0-14.39c0,1.75,0,3.94,0,6.24-.19.51-.39,0-.38-1.48C4.45,1562.3,4.56,1558.91,4.73,1556.76ZM.83,1587.2a10.64,10.64,0,0,1,.15-3.35c0,1.08,0,2.33.06,4,0,.06.05.2.07.26A2.73,2.73,0,0,1,.83,1587.2Z"/><path class="cls-2" d="M1.57,1591.3c0,.33,0,.51,0,.94,0-.47.09-.91.12-1.36-.06-.28-.11-.56-.17-.81C1.56,1590.49,1.56,1590.92,1.57,1591.3Z"/><path class="cls-2" d="M2.4,286.67v.3a4.1,4.1,0,0,1,.08-.63C2.44,286.54,2.42,286.54,2.4,286.67Z"/><polygon class="cls-2" points="5.8 1358.03 5.66 1358.05 5.78 1359.31 5.8 1358.03"/><path class="cls-2" d="M4.33,207.4a4.85,4.85,0,0,0,.14-1A9,9,0,0,0,4.33,207.4Z"/><path class="cls-2" d="M4.46,173.16l.2-4.84C4.54,170.42,4.49,171.94,4.46,173.16Z"/><path class="cls-2" d="M4.73,146.84a1.16,1.16,0,0,0-.24-.52v.05Z"/><path class="cls-2" d="M5.39,565.42c0,.35,0,.7,0,1C5.53,568.81,5.49,567.19,5.39,565.42Z"/><path class="cls-2" d="M4.08,440.85c.1,1.32.2,2.63.27,4C4.39,442.64,4.4,440.91,4.08,440.85Z"/><path class="cls-2" d="M6.07,704.51h0v0Z"/><path class="cls-2" d="M4.34,450.65c.11-2.22.08-4.07,0-5.79C4.31,446.67,4.25,448.81,4.34,450.65Z"/><path class="cls-2" d="M5,32.74l0-1.27s-.07-.06-.09-.15Z"/><path class="cls-2" d="M4.92,31.32l-.06-1.41A8,8,0,0,0,4.92,31.32Z"/><path class="cls-2" d="M4.71,26.94l.15,3A16.52,16.52,0,0,0,4.71,26.94Z"/><path class="cls-2" d="M4.73,67.59l.2.39C4.89,67.77,4.83,67.63,4.73,67.59Z"/><path class="cls-2" d="M4.79,78.18c0-2.53.43-6.34.31-9.87L4.93,68C5.24,69.64,4.44,75.78,4.79,78.18Z"/><path class="cls-2" d="M2.27,122.38l.16-8.87c-.22,1.55-.51,3.59-.56-.45C1.22,124.25,2.36,110.75,2.27,122.38Z"/><path class="cls-2" d="M2,149.9c-.1-4.77-.31,0-.43-.2C1.71,152.73,1.76,153.46,2,149.9Z"/><path class="cls-2" d="M2,348.76l-.51-.48C1.51,352,1.64,348.31,2,348.76Z"/><polygon class="cls-2" points="4.59 386.77 4.91 383.19 4.44 381.49 4.59 386.77"/><polygon class="cls-2" points="0.95 409.23 0.88 407.62 1.06 413.75 0.95 409.23"/><path class="cls-2" d="M1.13,743.2l.63-1.11C1.65,739.61.94,739.09,1.13,743.2Z"/><path class="cls-2" d="M1.77,887.39a34.09,34.09,0,0,0-.2,8.12C1.61,892.27,1.86,889,1.77,887.39Z"/><polygon class="cls-2" points="0.75 1319.79 0.54 1316.89 0.71 1322.36 0.75 1319.79"/></g></g></svg>