<?xml version="1.0" encoding="utf-8"?>
<!-- Generator: Adobe Illustrator 26.0.2, SVG Export Plug-In . SVG Version: 6.00 Build 0)  -->
<svg version="1.1" id="레이어_1" xmlns="http://www.w3.org/2000/svg" xmlns:xlink="http://www.w3.org/1999/xlink" x="0px"
	 y="0px" viewBox="0 0 50 50" style="enable-background:new 0 0 50 50;" xml:space="preserve">
<style type="text/css">
	.st0{fill:#C4EAFF;}
	.st1{fill:#7DD9FF;}
	.st2{display:none;}
	.st3{display:inline;fill:#C4EAFF;}
	.st4{display:inline;fill:#7DD9FF;}
</style>
<g id="Q_x26_A">
	<path class="st0" d="M50,16c0,2.8-1,5.6-2.9,7.7c-1.8,2.1-4.4,3.5-7.2,4c-0.3,1.6-0.2,3.2,0.3,4.7c0.1,0.4,0,0.7-0.3,1
		c-0.3,0.2-0.7,0.3-1,0.1c-1.8-0.9-3.4-2.1-4.8-3.6v-0.5c0-3.9-1.6-7.6-4.3-10.4c-2.8-2.8-6.5-4.3-10.4-4.3H19h0
		c0.3-2.9,1.7-5.5,3.9-7.4c2.2-1.9,4.9-3,7.8-3h7.5c3.1,0,6.1,1.2,8.3,3.5C48.8,9.8,50,12.8,50,16L50,16z"/>
	<path class="st1" d="M27.7,20.9c-2.2-2.2-5.2-3.5-8.3-3.4h-7.5c-3.1,0-6.1,1.2-8.3,3.5c-2.2,2.2-3.4,5.2-3.4,8.3
		c0,2.8,1,5.6,2.8,7.7c1.8,2.1,4.4,3.5,7.2,4c0.3,1.5,0.2,3.1-0.3,4.6c-0.1,0.4,0,0.7,0.3,1c0.3,0.2,0.7,0.3,1,0.1v0
		c2-1,4.7-2.8,6.2-5.6h2c3.1,0,6.1-1.2,8.3-3.5c2.2-2.2,3.4-5.2,3.4-8.3C31.2,26.1,29.9,23.1,27.7,20.9z M16.4,35.9
		c-0.2,0.2-0.5,0.4-0.9,0.4c-0.5,0-0.9-0.3-1.1-0.8c-0.2-0.5-0.1-1,0.3-1.3c0.4-0.4,0.9-0.5,1.3-0.3c0.5,0.2,0.8,0.6,0.8,1.1l0,0
		C16.8,35.4,16.7,35.7,16.4,35.9z M19,28.7c-0.5,0.7-1.3,1.3-2.1,1.6c0,0-0.1,0-0.1,0.1v1c0,0.7-0.7,1.3-1.5,1.2
		c-0.6-0.1-1-0.6-1-1.2v-0.9c0-0.5,0.2-1.1,0.5-1.5c0.3-0.4,0.8-0.8,1.3-0.9c0.4-0.1,0.7-0.4,0.9-0.7c0.2-0.3,0.3-0.7,0.3-1
		c0-0.5-0.2-0.9-0.5-1.2c-0.3-0.3-0.8-0.5-1.2-0.5c-0.3,0-0.6,0.1-0.9,0.3c-0.3,0.2-0.5,0.4-0.6,0.7c-0.3,0.6-1,0.9-1.6,0.6
		c-0.6-0.3-0.9-1-0.6-1.6c0.3-0.7,0.9-1.3,1.5-1.7c0.7-0.4,1.4-0.6,2.2-0.6h0c1.1,0,2.1,0.4,2.9,1.2c0.8,0.8,1.3,1.8,1.3,2.9l0,0
		C19.8,27.1,19.5,28,19,28.7z"/>
</g>
<g id="people" class="st2">
	<path class="st3" d="M34,27.2c-0.7,0-1.4,0-2.2,0.1c2.6,1.9,4.4,4.4,4.4,7.8v5.6h13.5v-5.6C49.8,29.9,39.2,27.2,34,27.2z"/>
	<path class="st3" d="M34,22.8c3.7,0,6.7-3,6.7-6.8s-3-6.8-6.7-6.8s-6.8,3-6.8,6.8S30.3,22.8,34,22.8z"/>
	<path class="st4" d="M16,22.8c3.7,0,6.7-3,6.7-6.8s-3-6.8-6.7-6.8s-6.8,3-6.8,6.8S12.3,22.8,16,22.8z"/>
	<path class="st4" d="M16,27.2c-5.2,0-15.8,2.6-15.8,7.9v5.6h31.5v-5.6C31.8,29.9,21.2,27.2,16,27.2z"/>
</g>
</svg>
